<?xml version="1.0" standalone="no"?><!DOCTYPE svg PUBLIC "-//W3C//DTD SVG 1.1//EN" "http://www.w3.org/Graphics/SVG/1.1/DTD/svg11.dtd"><svg t="1641567668725" class="icon" viewBox="0 0 1024 1024" version="1.1" xmlns="http://www.w3.org/2000/svg" p-id="8290" xmlns:xlink="http://www.w3.org/1999/xlink" width="200" height="200"><defs><style type="text/css"></style></defs><path d="M288.14368 427.2c0 36.8 17.6 52.8 17.6 62.4 0 4.8-3.2 8-6.4 9.6l-20.8 14.4c-3.2 1.6-6.4 3.2-9.6 3.2 0 0-12.8 3.2-32-41.6-24 30.4-60.8 48-100.8 46.4-25.6 1.6-96-14.4-92.8-89.6-3.2-60.8 54.4-99.2 113.6-96 11.2 0 35.2 0 75.2 9.6V320c4.8-41.6-24-75.2-72-70.4-3.2 0-30.4 0-73.6 16-11.2 8-11.2 6.4-16 6.4-11.2 0-6.4-33.6-4.8-38.4 8-9.6 57.6-28.8 105.6-28.8 32-3.2 64 6.4 89.6 27.2 20.8 22.4 30.4 52.8 28.8 83.2l-1.6 112z m-137.6 51.2c51.2 0 73.6-32 78.4-48 3.2-16 3.2-25.6 3.2-43.2-16-3.2-38.4-8-64-8-24-1.6-68.8 9.6-67.2 51.2 0 27.2 19.2 49.6 49.6 48z m273.6 36.8c-12.8 1.6-19.2-8-20.8-16l-80-264c-1.6-4.8-3.2-9.6-3.2-14.4 0-4.8 1.6-8 6.4-8h35.2c14.4-1.6 19.2 9.6 20.8 16l57.6 225.6 52.8-225.6c1.6-4.8 4.8-17.6 20.8-16h27.2c3.2 0 17.6 0 20.8 16l52.8 228.8 59.2-228.8c0-3.2 4.8-17.6 20.8-16h32c1.6 0 9.6-1.6 8 14.4 0 3.2 4.8-17.6-84.8 272-1.6 9.6-8 17.6-20.8 16h-30.4c-17.6 1.6-20.8-16-20.8-17.6l-52.8-219.2-52.8 219.2c0 1.6-3.2 19.2-20.8 17.6h-27.2z m436.8 9.6c-9.6 0-54.4 0-91.2-19.2-8-3.2-12.8-11.2-12.8-19.2v-17.6c0-12.8 9.6-11.2 14.4-9.6 16 6.4 25.6 11.2 46.4 16 59.2 12.8 84.8-3.2 91.2-6.4 20.8-12.8 22.4-41.6 8-56-16-14.4-24-14.4-84.8-33.6-8-1.6-70.4-22.4-70.4-83.2-1.6-44.8 40-89.6 112-89.6 20.8 0 73.6 6.4 89.6 25.6 1.6 3.2 3.2 8 3.2 11.2v16c0 6.4-3.2 11.2-8 11.2-12.8-1.6-33.6-17.6-78.4-17.6-11.2 0-64 1.6-60.8 40 0 30.4 43.2 41.6 48 43.2 57.6 17.6 78.4 20.8 100.8 48 27.2 35.2 12.8 76.8 6.4 88-32 57.6-112 52.8-113.6 52.8z m65.6 168c-112 83.2-275.2 126.4-412.8 126.4C324.94368 820.8 144.14368 752 4.94368 625.6c-11.2-9.6-1.6-22.4 11.2-14.4 153.6 88 329.6 134.4 507.2 134.4 132.8 0 264-27.2 387.2-80 17.6-6.4 33.6 12.8 16 27.2z m46.4-52.8c-14.4-19.2-94.4-8-131.2-4.8-11.2 1.6-12.8-8-3.2-14.4 64-44.8 169.6-32 180.8-17.6 12.8 14.4-3.2 120-64 171.2-9.6 8-17.6 3.2-14.4-6.4 16-35.2 46.4-110.4 32-128z" p-id="8291"></path></svg>