<?xml version="1.0" standalone="no"?><!DOCTYPE svg PUBLIC "-//W3C//DTD SVG 1.1//EN" "http://www.w3.org/Graphics/SVG/1.1/DTD/svg11.dtd"><svg t="1632833096267" class="icon" viewBox="0 0 1024 1024" version="1.1" xmlns="http://www.w3.org/2000/svg" p-id="4412" xmlns:xlink="http://www.w3.org/1999/xlink" width="64" height="64"><defs><style type="text/css"></style></defs><path d="M895.97098474 686.8117678c-5.68953067 12.47576907-20.41062478 17.97248969-32.88392193 12.28048709-12.46752933-5.68705874-17.96424995-20.41062478-12.27636723-32.8781533 77.95357306-171.22397305 15.87959912-373.69628092-144.64261724-471.81575994C545.64668513 96.2838081 337.14866495 133.37081299 220.3077066 280.82482501c-116.83931123 147.45813189-105.27732752 358.9109176 26.93978312 492.74960696 132.22205529 133.84198526 343.52405365 147.97888221 492.38458621 32.9432473 10.85089444-7.78489316 25.90981732-5.58488589 34.08362566 4.9660826 8.17627944 10.54684863 6.53575012 25.68487308-3.70540475 34.2377081-168.69108087 130.43321054-408.17294165 114.47203793-558.06344-37.18093799-149.8929711-151.6603917-163.04110098-391.31693509-30.65260363-558.46389167C313.68192658 82.92968458 549.99066855 40.85517291 731.94276465 152.04120752 913.88414826 263.22312308 984.25058206 492.69536502 895.91577844 686.76562522l0.0552063 0.04614258z" p-id="4413"></path><path d="M273.46217682 533.83631592m-41.19862829 0a41.1986283 41.1986283 0 1 0 82.39725741 0 41.1986283 41.1986283 0 1 0-82.39725742 0Z" p-id="4414"></path><path d="M442.10217209 533.83631592m-41.19862912 0a41.1986283 41.1986283 0 1 0 82.39725741 0 41.1986283 41.1986283 0 1 0-82.39725741 0Z" p-id="4415"></path><path d="M610.74134256 533.83631592m-41.19862912 0a41.1986283 41.1986283 0 1 0 82.39725741 0 41.1986283 41.1986283 0 1 0-82.39725742 0Z" p-id="4416"></path><path d="M779.381337 533.83631592m-41.19862829 0a41.1986283 41.1986283 0 1 0 82.39725742 0 41.1986283 41.1986283 0 1 0-82.39725742 0Z" p-id="4417"></path></svg>