<svg width="46" height="46" viewBox="0 0 46 46" fill="none" xmlns="http://www.w3.org/2000/svg">
<path d="M33.843 22.4016L29.4843 41.4175C29.4247 41.6773 29.5886 41.937 29.8419 41.9964C29.8792 42.0038 29.909 42.0113 29.9462 42.0113H38.6562C38.9244 42.0113 39.1331 41.796 39.1331 41.5288C39.1331 41.4917 39.1256 41.4546 39.1182 41.4249L34.7594 22.4091C34.6626 21.9044 33.9622 21.9044 33.843 22.4016ZM9.71728 29.6087L7.01264 41.4175C6.95304 41.6698 7.1095 41.9296 7.37028 41.989C7.40754 41.9964 7.44479 42.0038 7.48204 42.0038H12.8988C13.2043 42.0038 13.4278 41.7218 13.3607 41.4175L10.6486 29.6087C10.5294 29.1188 9.82905 29.1188 9.71728 29.6087Z" fill="#00E5E5"/>
<path d="M15.663 15.1872L9.65023 41.41C9.59062 41.6698 9.75454 41.9296 10.0079 41.989C10.0451 41.9964 10.0749 42.0038 10.1122 42.0038H22.1303C22.3986 42.0038 22.6072 41.7886 22.6072 41.5214C22.6072 41.4842 22.5997 41.4471 22.5923 41.4174L16.5869 15.1946C16.4752 14.6973 15.7748 14.6973 15.663 15.1872Z" fill="#006EFF"/>
<path d="M25.7514 4.37297L17.2575 41.41C17.1979 41.6698 17.3618 41.9296 17.6151 41.989C17.6524 41.9964 17.6822 42.0038 17.7194 42.0038H34.6924C34.9606 42.0038 35.1692 41.7886 35.1692 41.5214C35.1692 41.4843 35.1618 41.4471 35.1543 41.4175L26.6753 4.37297C26.5636 3.87568 25.8632 3.87568 25.7514 4.37297Z" fill="#006EFF"/>
<path d="M20.1335 18.787L14.9477 41.4101C14.8881 41.6698 15.0521 41.9296 15.3054 41.989C15.3426 41.9964 15.3724 42.0038 15.4097 42.0038H25.7738C26.042 42.0038 26.2506 41.7886 26.2506 41.5214C26.2506 41.4843 26.2432 41.4472 26.2357 41.4175L21.05 18.7944C20.9456 18.2971 20.2453 18.2971 20.1335 18.787Z" fill="#00E5E5"/>
</svg>
