<svg height="14" viewBox="0 0 14 14" width="14" xmlns="http://www.w3.org/2000/svg"><path d="m8.1 3.4-.5-2.4h-1.2l-.5 2.4-.7.3-2-1.3-.9.8 1.3 2-.2.7-2.4.5v1.2l2.4.5.3.8-1.3 2 .8.8 2-1.3.8.3.4 2.3h1.2l.5-2.4.8-.3 2 1.3.8-.8-1.3-2 .3-.8 2.3-.4v-1.2l-2.4-.5-.3-.8 1.3-2-.8-.8-2 1.3zm.3-3.4.5 2.4 2.1-1.3 2 2-1.4 2.1 2.4.4v2.8l-2.4.5 1.4 2.1-2 2-2.1-1.4-.5 2.4h-2.8l-.5-2.4-2.1 1.3-2-2 1.4-2.1-2.4-.4v-2.8l2.4-.5-1.3-2.1 2-2 2.1 1.4.4-2.4zm.6 7c0 1.1-.9 2-2 2s-2-.9-2-2 .9-2 2-2 2 .9 2 2zm-2 1c.6 0 1-.4 1-1s-.4-1-1-1-1 .4-1 1 .4 1 1 1z" fill="#858585"/></svg>