<?xml version="1.0" standalone="no"?><!DOCTYPE svg PUBLIC "-//W3C//DTD SVG 1.1//EN" "http://www.w3.org/Graphics/SVG/1.1/DTD/svg11.dtd"><svg t="1686824408208" class="icon" viewBox="0 0 1055 1024" version="1.1" xmlns="http://www.w3.org/2000/svg" p-id="8695" xmlns:xlink="http://www.w3.org/1999/xlink" width="131.875" height="128"><path d="M1009.105455 700.819394l-25.398303-40.587636c-14.072242 13.374061-31.309576 21.007515-48.09697 21.007515-7.71103 0-11.791515-0.930909-28.578909-5.244121-16.787394-4.794182-28.594424-6.206061-41.735758-6.206061-59.438545 0-97.993697 32.473212-97.993697 82.602667 0 36.289939 16.337455 58.740364 49.912243 67.801212-13.622303 3.351273-28.594424 10.519273-35.390061 18.649212-4.995879 5.740606-7.261091 13.34303-7.261091 22.419394 0 7.664485 1.815273 14.336 4.530424 20.061091 3.165091 5.275152 7.71103 9.557333 13.156849 11.946666 10.876121 4.297697 28.578909 7.152485 55.792485 7.64897 14.072242 0 22.698667 0.465455 25.879272 0.465455 16.787394 0.961939 25.398303 3.816727 31.759516 7.168 6.345697 3.816727 10.876121 12.412121 10.876121 21.953939 0 9.557333-5.895758 19.114667-14.506667 24.839758-8.176485 5.740606-21.333333 8.129939-38.570667 8.129939-28.12897 0-43.55103-10.519273-43.55103-30.099394 0-8.595394 0.899879-10.503758 2.715152-15.763394h-56.25794c-2.265212 4.778667-5.430303 11.465697-5.430303 24.839758 0 16.725333 6.345697 31.030303 19.052606 43.457939 20.867879 20.542061 54.892606 26.267152 88.00194 26.267152 36.305455 0 71.245576-8.595394 91.648-31.526788 12.691394-14.320485 18.587152-30.083879 18.587151-50.610425 0-21.969455-6.345697-38.679273-19.952485-52.053333-16.337455-15.763394-34.924606-21.504-70.314666-21.969454l-32.674909-0.465455c-6.345697 0-9.960727-2.389333-9.960728-5.740606 0-6.68703 8.595394-12.412121 24.03297-20.045576 4.545939 0.465455 6.361212 0.465455 9.060848 0.465455 49.462303 0 85.752242-30.564848 85.752243-72.579879 0-16.244364-4.530424-28.64097-13.622303-40.106667 7.726545 0.930909 9.991758 1.427394 15.887515 1.427394 16.787394 0 29.478788-5.259636 42.651152-18.152727z m37.391515-237.009455c0-27.461818-16.911515-52.906667-45.707637-73.79006 2.59103 8.378182 4.049455 16.911515 4.049455 25.6 0 78.661818-109.800727 145.935515-265.464243 173.785212 17.625212 1.985939 35.886545 3.072 54.659879 3.072 139.450182 0 252.478061-57.607758 252.478061-128.667152z m-89.708606-42.759757c0 75.465697-168.804848 136.626424-377.033697 136.626424-208.213333 0-377.018182-61.160727-377.018182-136.641939 0-23.769212 16.756364-46.095515 46.204121-65.567031-4.545939 8.347152-6.966303 16.989091-6.966303 25.832728 0 69.709576 148.48 126.215758 331.620849 126.215757 183.156364 0 331.636364-56.506182 331.636363-126.215757 0-13.187879-5.352727-25.910303-15.204848-37.872485 42.046061 22.04703 66.761697 48.779636 66.761697 77.606788z m-712.378182-120.80097c-76.055273 18.571636-127.720727 54.970182-127.720727 96.814546 0 25.910303 19.812848 49.710545 52.906666 68.499394-9.929697-15.90303-15.36-32.643879-15.36-49.927758 0-43.535515 33.714424-83.564606 90.174061-115.386182z m743.718788-122.693818c-6.997333-8.424727-16.585697-8.393697-24.141576-1.551515-7.292121 9.681455-7.509333 16.570182-2.327273 21.907394 5.523394 5.709576 16.989091 10.643394 25.243152 4.096 8.254061-6.578424 8.22303-16.042667 1.225697-24.451879z m-95.806061 31.371636c23.598545-32.923152 68.747636 25.289697 17.578667 33.388606-20.48 3.242667-55.078788 25.646545-69.911273 61.005576-20.945455 52.332606-11.884606 91.058424-47.910788 114.346667-76.815515 49.648485-313.499152 68.375273-415.402667 4.701091-79.90303-49.912242-52.487758-129.039515-280.979393-303.445334-29.897697-22.791758 5.492364-46.995394 27.880727-31.495757 22.372848 15.515152 1.892848 19.611152 47.026424 64.791273 91.182545 91.229091 90.267152 9.216 104.665212 40.230787C305.555394 257.675636 372.363636 323.366788 372.363636 323.366788c66.901333 43.535515 120.32 53.061818 218.996364-13.715394 62.572606-42.325333 36.972606 67.335758 190.448485-11.698424 55.963152-28.842667 53.635879-9.712485 110.529939-89.02594zM226.459152 125.253818c-3.878788-5.445818-15.36-7.943758-23.055516-0.217212-7.68 7.742061-3.894303 15.39103 0.543031 19.983515 6.361212 6.593939 17.159758 6.050909 23.58303 2.482424 6.454303-3.568485 5.08897-13.575758-1.086061-22.248727zM67.801212 64.698182c5.026909-5.507879 11.357091-15.918545 0.465455-35.84C60.353939 14.273939 34.117818 8.316121 24.855273 13.886061c-9.231515 5.585455-20.526545 27.120485-5.05794 36.600242 19.921455 12.225939 32.985212 30.72 48.019394 14.227394z m946.11394-27.07394c-7.028364-10.193455-21.845333-8.347152-36.507152 2.296243-14.677333 10.627879-11.900121 30.844121-7.043879 35.545212 8.502303 8.269576 31.185455 2.684121 36.460606-3.242667 13.606788-15.204848 14.087758-24.405333 7.074909-34.598788z m-84.433455 64.729213c21.007515-9.898667 54.023758 22.279758 6.237091 46.452363-68.313212 34.536727-75.558788 77.420606-118.706424 104.665212-72.579879 45.831758-50.362182 1.861818-167.113697-14.801454-44.962909-6.407758-59.42303 43.752727-94.518303 29.24606-80.92703-33.419636-137.433212-27.011879-189.843394 15.608243-18.97503-8.378182-38.818909-40.680727-46.607515-53.620364 21.255758-20.821333 12.675879-55.606303 0.667151-74.674424-11.977697-19.083636-26.499879-13.653333-42.433939-31.20097-15.949576-17.532121 6.004364-63.270788 26.437818-28.128969 76.520727 131.661576 126.758788 76.893091 189.284848 69.042424 59.981576-7.540364 113.012364 25.134545 129.272243-67.413334 2.668606-15.127273 17.408-18.742303 18.912969 6.268122 1.489455 25.041455 10.891636 86.000485 43.876849 93.866666 32.969697 7.850667 59.159273-7.726545 66.870303-16.384 7.742061-8.641939 11.791515-7.385212 15.173818 14.072243 3.397818 21.488485 11.760485 51.137939 58.073212 18.106182 94.704485-67.584 67.61503-93.72703 104.41697-111.088485zM647.974788 40.525576c0.310303-10.814061-4.608-17.594182-15.282424-17.221818-10.658909 0.387879-14.491152 5.756121-14.149819 16.197818 2.668606 19.766303 5.988848 19.285333 13.063758 21.100606 7.074909 1.846303 16.058182-9.278061 16.368485-20.076606zM268.25697 59.097212c4.654545-5.864727 5.08897-13.575758-1.086061-22.264242-3.847758-5.430303-21.922909-9.153939-29.587394-1.427394-7.68 7.757576-0.698182 19.905939 5.290667 21.752242 11.077818 3.413333 16.011636 13.730909 25.382788 1.939394z m633.328485 693.775515c0 22.450424-13.156848 34.84703-37.205334 34.847031-21.317818 0-35.84-10.007273-35.84-34.847031 0-22.931394 13.172364-36.305455 36.305455-36.305454 23.133091 0 36.755394 13.374061 36.755394 36.305454z m-174.204122 137.060849c19.983515-23.893333 29.028848-52.549818 29.028849-94.564849 0-39.641212-8.16097-66.373818-26.748121-89.305212-19.968-24.824242-45.816242-36.755394-78.956606-36.755394-62.588121 0-104.323879 51.075879-104.323879 127.984485 0 76.877576 41.270303 126.541576 104.323879 126.541576 35.84 0 58.988606-12.877576 76.675878-33.900606z m-37.189818-95.030303c0 57.778424-11.326061 82.602667-37.655273 82.602666-11.791515 0-25.398303-6.671515-30.844121-20.045575-4.995879-12.427636-7.726545-33.450667-7.726545-61.610667 0-24.358788 2.265212-41.549576 6.361212-54.442667 4.964848-15.282424 16.771879-24.824242 31.29406-24.824242 10.876121 0 20.417939 4.763152 26.313697 12.893091 8.16097 10.969212 12.25697 32.457697 12.25697 65.427394zM111.616 962.497939l29.478788 34.381576c28.578909-11.450182 64.418909-37.236364 73.479757-77.808485 3.180606-13.389576 4.530424-21.98497 4.530425-64.977454V588.396606h-64.387879v272.86497c0 35.84-1.365333 49.18303-6.361212 61.129697-5.895758 13.374061-20.433455 29.602909-36.739879 40.106666z m148.821333-374.84606h-6.609454v330.938182h63.503515v-146.618182h80.290909v-54.427152h-80.290909v-75.946666h100.243394l3.894303-28.889213a1069.381818 1069.381818 0 0 1-161.031758-25.056969z m211.130182 80.694303c5.461333 10.038303 8.610909 21.02303 9.526303 34.87806 8.626424-12.427636 23.148606-25.320727 34.490182-31.061333 4.995879-2.389333 13.156848-3.816727 19.952485-3.816727 9.076364 0 13.156848 0.961939 22.683151 5.259636l-16.787394 56.335515a33.016242 33.016242 0 0 0-17.687272-4.763151c-13.606788 0-25.863758 6.68703-37.205334 20.526545v172.869818h-60.788363V755.246545c0-32.954182-3.630545-57.778424-8.610909-71.617939l54.427151-15.282424z" fill="#40BE46" p-id="8696"></path></svg>