<?xml version="1.0" standalone="no"?><!DOCTYPE svg PUBLIC "-//W3C//DTD SVG 1.1//EN" "http://www.w3.org/Graphics/SVG/1.1/DTD/svg11.dtd"><svg t="1632823847517" class="icon" viewBox="0 0 1024 1024" version="1.1" xmlns="http://www.w3.org/2000/svg" p-id="8964" xmlns:xlink="http://www.w3.org/1999/xlink" width="64" height="64"><defs><style type="text/css"></style></defs><path d="M437.76 140.8s-81.92-2.56-133.12 64-12.8 168.96 12.8 222.72 153.6 261.12 158.72 263.68c5.12 5.12 10.24 2.56 10.24-2.56s15.36-302.08 2.56-373.76c-10.24-74.24-46.08-166.4-51.2-174.08z m-281.6 138.24c-10.24 0-76.8 66.56-81.92 133.12-5.12 64 23.04 107.52 99.84 161.28 79.36 56.32 263.68 158.72 268.8 148.48 2.56-7.68-71.68-143.36-133.12-240.64-64-99.84-143.36-204.8-153.6-202.24z m25.6 599.04c56.32 25.6 143.36-30.72 168.96-48.64 23.04-17.92 64-48.64 64-48.64l-320 10.24s30.72 61.44 87.04 87.04z m7.68-258.56c-56.32-28.16-174.08-94.72-179.2-92.16-5.12 0-23.04 81.92 15.36 143.36 35.84 61.44 107.52 79.36 140.8 84.48 35.84 5.12 253.44 2.56 253.44-2.56-2.56 0-174.08-104.96-230.4-133.12z m529.92-417.28c-51.2-66.56-133.12-64-133.12-64-5.12 7.68-40.96 99.84-51.2 174.08s2.56 371.2 2.56 376.32c0 5.12 5.12 5.12 10.24 2.56 5.12-5.12 135.68-212.48 158.72-263.68 25.6-53.76 64-156.16 12.8-225.28z m294.4 325.12c-5.12 0-122.88 64-179.2 92.16S606.72 750.08 606.72 755.2c-2.56 5.12 215.04 7.68 253.44 2.56 33.28-5.12 104.96-23.04 140.8-84.48 35.84-64 17.92-145.92 12.8-145.92zM673.28 829.44c23.04 15.36 112.64 71.68 168.96 48.64s87.04-87.04 87.04-87.04l-320-7.68c0-2.56 40.96 30.72 64 46.08zM949.76 409.6c-5.12-64-71.68-130.56-81.92-133.12-10.24 0-89.6 102.4-151.04 202.24S578.56 711.68 583.68 719.36c2.56 7.68 189.44-92.16 268.8-148.48 74.24-51.2 102.4-94.72 97.28-161.28z" fill="#FF2A30" p-id="8965"></path></svg>