<?xml version="1.0" standalone="no"?><!DOCTYPE svg PUBLIC "-//W3C//DTD SVG 1.1//EN" "http://www.w3.org/Graphics/SVG/1.1/DTD/svg11.dtd"><svg t="1632832720479" class="icon" viewBox="0 0 1024 1024" version="1.1" xmlns="http://www.w3.org/2000/svg" p-id="4270" xmlns:xlink="http://www.w3.org/1999/xlink" width="64" height="64"><defs><style type="text/css"></style></defs><path d="M907.6 246.9c-15.6-9.4-35.9-4.3-45.3 11.3-78.4 130.7-209.2 208.7-349.8 208.7-49.4 0-97.6-9.6-142.7-27.8l-14.3-109.3c-2.4-18.1-18.9-30.8-37-28.4-18.1 2.4-30.8 18.9-28.4 37l8.3 63.1c-53.9-35.6-100.9-84.8-136.7-145.1-9.3-15.7-29.6-20.8-45.2-11.5-15.7 9.3-20.8 29.6-11.5 45.2C148.3 363 207.6 423.8 276.7 466c10.6 6.5 21.5 12.5 32.5 18.1l29.3 223.4c6.8 54.9 53.6 96.2 108.9 96.2H582c52.1 0 97.4-37.1 107.6-88.3l29-145.7c3.6-17.9-8-35.3-25.9-38.8-17.9-3.6-35.3 8-38.8 25.9l-29 145.7c-4.1 20.4-22.1 35.2-42.9 35.2H447.3c-22 0-40.7-16.5-43.4-38.4l-24.5-186.7c43.1 13.4 87.9 20.4 133 20.4 164 0 315.9-90 406.4-240.8 9.5-15.7 4.5-36-11.2-45.3z" p-id="4271"></path></svg>