<?xml version="1.0" standalone="no"?><!DOCTYPE svg PUBLIC "-//W3C//DTD SVG 1.1//EN" "http://www.w3.org/Graphics/SVG/1.1/DTD/svg11.dtd"><svg t="1632823868401" class="icon" viewBox="0 0 1125 1024" version="1.1" xmlns="http://www.w3.org/2000/svg" p-id="9248" xmlns:xlink="http://www.w3.org/1999/xlink" width="70.3125" height="64"><defs><style type="text/css"></style></defs><path d="M584.924407 407.00214h113.891317v116.422986h57.583407c26.592195 0 53.942924-4.739634 79.126757-13.27194 12.37571-4.193682 26.263657-10.034882 38.472682-17.376241-16.079001-20.990151-24.285187-47.49538-26.703317-73.621341-3.280541-35.535173 3.886886-81.784044 27.935332-109.596175l11.972286-13.84688 14.264799 11.467401c35.91444 28.858136 66.122961 69.181257 71.449613 115.145072 43.243721-12.721157 94.022058-9.711176 132.142046 12.29116l15.641757 9.020281-8.232758 16.069339c-32.237721 62.919722-99.638596 82.407298-165.534479 78.962488-98.602254 245.588871-313.269968 361.859667-573.558467 361.859666-134.473211 0-257.848626-50.271037-328.104876-169.575971l-1.152296-1.949482-10.237802-20.825882C10.133926 655.661385 2.246615 598.131123 7.597425 540.644345l1.604035-17.216803h97.389565v-116.422987h113.884069v-113.8889h227.782633V179.224338h136.66668v227.777802z" fill="" p-id="9249"></path><path d="M208.256406 434.210342h7.795513v82.259939h-7.795513v-82.259939z m-14.950863 0h8.102309v82.259939H193.305543v-82.259939z m-14.958109 0h8.102309v82.259939h-8.102309v-82.259939z m-14.95811 0h8.102309v82.259939h-8.102309v-82.259939z m-14.953278 0H156.538355v82.259939h-8.102309v-82.259939z m-14.644066 0h7.788266v82.259939h-7.788266v-82.259939z m-8.22068-8.227927h98.701298v98.70613H125.5713v-98.70613zM322.145306 320.319025h7.800345v82.257524h-7.800345v-82.257524z m-14.950862 0h8.102309v82.257524h-8.102309v-82.257524z m-14.95811 0h8.10231v82.257524h-8.10231v-82.257524z m-14.958109 0h8.102309v82.257524h-8.102309v-82.257524z m-14.948447 0h8.097478v82.257524h-8.097478v-82.257524z m-14.644066 0h7.783435v82.257524h-7.783435v-82.257524z m-8.230343-8.22551h98.713377v98.703714H239.455369v-98.703714zM322.145306 434.210342h7.800345v82.259939h-7.800345v-82.259939z m-14.950862 0h8.102309v82.259939h-8.102309v-82.259939z m-14.95811 0h8.10231v82.259939h-8.10231v-82.259939z m-14.958109 0h8.102309v82.259939h-8.102309v-82.259939z m-14.948447 0h8.097478v82.259939h-8.097478v-82.259939z m-14.644066 0h7.783435v82.259939h-7.783435v-82.259939z m-8.230343-8.227927h98.713377v98.70613H239.455369v-98.70613zM436.039038 434.210342h7.790682v82.259939h-7.790682v-82.259939z m-14.955693 0h8.104725v82.259939h-8.104725v-82.259939z m-14.953279 0h8.10231v82.259939h-8.10231v-82.259939z m-14.958109 0h8.102309v82.259939h-8.102309v-82.259939z m-14.95811 0h8.10231v82.259939h-8.10231v-82.259939z m-14.639235 0h7.783435v82.259939h-7.783435v-82.259939z m-8.22551-8.227927h98.708545v98.70613h-98.708545v-98.70613zM436.039038 320.319025h7.790682v82.257524h-7.790682v-82.257524z m-14.955693 0h8.104725v82.257524h-8.104725v-82.257524z m-14.953279 0h8.10231v82.257524h-8.10231v-82.257524z m-14.958109 0h8.102309v82.257524h-8.102309v-82.257524z m-14.95811 0h8.10231v82.257524h-8.10231v-82.257524z m-14.639235 0h7.783435v82.257524h-7.783435v-82.257524z m-8.22551-8.22551h98.708545v98.703714h-98.708545v-98.703714zM549.930355 434.210342h7.793097v82.259939h-7.793097v-82.259939z m-14.953278 0h8.102309v82.259939h-8.102309v-82.259939z m-14.95811 0h8.102309v82.259939h-8.102309v-82.259939z m-14.958109 0h8.102309v82.259939h-8.102309v-82.259939z m-14.950863 0h8.10231v82.259939h-8.10231v-82.259939z m-14.646482 0h7.788266v82.259939h-7.788266v-82.259939z m-8.225511-8.227927h98.708546v98.70613h-98.708546v-98.70613zM549.930355 320.319025h7.793097v82.257524h-7.793097v-82.257524z m-14.953278 0h8.102309v82.257524h-8.102309v-82.257524z m-14.95811 0h8.102309v82.257524h-8.102309v-82.257524z m-14.958109 0h8.102309v82.257524h-8.102309v-82.257524z m-14.950863 0h8.10231v82.257524h-8.10231v-82.257524z m-14.646482 0h7.788266v82.257524h-7.788266v-82.257524z m-8.225511-8.22551h98.708546v98.703714h-98.708546v-98.703714zM549.930355 206.425293h7.793097v82.262355h-7.793097V206.425293z m-14.953278 0h8.102309v82.262355h-8.102309V206.425293z m-14.95811 0h8.102309v82.262355h-8.102309V206.425293z m-14.958109 0h8.102309v82.262355h-8.102309V206.425293z m-14.950863 0h8.10231v82.262355h-8.10231V206.425293z m-14.646482 0h7.788266v82.262355h-7.788266V206.425293z m-8.225511-8.220679h98.708546v98.70613h-98.708546v-98.70613zM663.819255 434.210342h7.788267v82.259939h-7.788267v-82.259939z m-14.953278 0h8.097478v82.259939h-8.097478v-82.259939z m-14.962941 0h8.10231v82.259939h-8.10231v-82.259939z m-14.953278 0h8.10231v82.259939h-8.10231v-82.259939z m-14.958109 0h8.102309v82.259939h-8.102309v-82.259939z m-14.644067 0h7.795514v82.259939h-7.795514v-82.259939z m-8.220679-8.227927h98.70613v98.70613h-98.70613v-98.70613z" fill="#FFFFFF" p-id="9250"></path><path d="M331.986931 684.72244c15.037828 0 27.227528 12.196947 27.227527 27.229944 0 15.037828-12.1897 27.227528-27.227527 27.227528-15.040244 0-27.229944-12.1897-27.229944-27.227528 0-15.032997 12.1897-27.229944 27.229944-27.229944" fill="#FFFFFF" p-id="9251"></path><path d="M331.986931 692.450314c2.490603 0 4.867666 0.468649 7.061136 1.31898a7.957366 7.957366 0 1 0 10.957684 10.706451 19.504486 19.504486 0 1 1-18.01882-12.025431" fill="" p-id="9252"></path><path d="M404.376257 880.955831c-67.43711-32.000981-104.453116-75.505599-125.049506-122.996148-25.050968 7.152933-55.16286 11.721051-90.14725 13.682612-13.182559 0.741625-27.046349 1.120892-41.596202 1.120892-16.769896 0-34.448101-0.495222-53.000795-1.480834 61.842313 61.806078 137.922853 109.390839 278.792878 110.265328 10.399655-0.002416 20.724422-0.205336 31.000875-0.59185z" fill="#FFFFFF" p-id="9253"></path></svg>